<svg width="29" height="32" viewBox="0 0 29 32" fill="none" xmlns="http://www.w3.org/2000/svg">
<g filter="url(#filter0_d_20_284)">
<path d="M7.33331 19.5H9.49998V21.6667H22.5V4.33334H9.49998V6.50001H7.33331V3.25001C7.33331 2.96269 7.44745 2.68714 7.65061 2.48397C7.85378 2.28081 8.12933 2.16667 8.41665 2.16667H23.5833C23.8706 2.16667 24.1462 2.28081 24.3493 2.48397C24.5525 2.68714 24.6666 2.96269 24.6666 3.25001V22.75C24.6666 23.0373 24.5525 23.3129 24.3493 23.516C24.1462 23.7192 23.8706 23.8333 23.5833 23.8333H8.41665C8.12933 23.8333 7.85378 23.7192 7.65061 23.516C7.44745 23.3129 7.33331 23.0373 7.33331 22.75V19.5ZM9.49998 11.9167H17.0833V14.0833H9.49998V17.3333L4.08331 13L9.49998 8.66667V11.9167Z" fill="white"/>
</g>
<defs>
<filter id="filter0_d_20_284" x="-1" y="0" width="34" height="34" filterUnits="userSpaceOnUse" color-interpolation-filters="sRGB">
<feFlood flood-opacity="0" result="BackgroundImageFix"/>
<feColorMatrix in="SourceAlpha" type="matrix" values="0 0 0 0 0 0 0 0 0 0 0 0 0 0 0 0 0 0 127 0" result="hardAlpha"/>
<feOffset dy="4"/>
<feGaussianBlur stdDeviation="2"/>
<feComposite in2="hardAlpha" operator="out"/>
<feColorMatrix type="matrix" values="0 0 0 0 0 0 0 0 0 0 0 0 0 0 0 0 0 0 0.25 0"/>
<feBlend mode="normal" in2="BackgroundImageFix" result="effect1_dropShadow_20_284"/>
<feBlend mode="normal" in="SourceGraphic" in2="effect1_dropShadow_20_284" result="shape"/>
</filter>
</defs>
</svg>
