<svg width="40" height="40" viewBox="0 0 40 40" fill="none" xmlns="http://www.w3.org/2000/svg">
<path d="M14.3501 36.6667C13.5368 36.6619 12.7471 36.3928 12.1001 35.9L8.65006 33.3334C7.85391 32.7126 7.32565 31.8106 7.17377 30.8126C7.02189 29.8145 7.25793 28.7962 7.83339 27.9667C8.13787 27.5171 8.33138 27.0017 8.39801 26.4628C8.46465 25.9239 8.40252 25.3769 8.21672 24.8667L8.11672 24.6C7.98736 24.1382 7.75091 23.7134 7.42657 23.3601C7.10223 23.0068 6.69916 22.735 6.25006 22.5667H5.98339C5.00984 22.2393 4.20474 21.5411 3.74291 20.6237C3.28107 19.7063 3.19979 18.6437 3.51672 17.6667L4.88339 13.3334C5.0092 12.8313 5.24082 12.3619 5.56275 11.9566C5.88468 11.5513 6.28948 11.2195 6.75006 10.9834C7.17898 10.7624 7.64828 10.6307 8.12955 10.5963C8.61083 10.562 9.09408 10.6256 9.55006 10.7834C10.0465 10.9505 10.5763 10.9938 11.0933 10.9095C11.6103 10.8253 12.099 10.6161 12.5167 10.3L12.7334 10.1334C13.1115 9.83163 13.4172 9.44888 13.6277 9.01332C13.8383 8.57775 13.9485 8.10049 13.9501 7.61671V7.21671C13.9456 6.19693 14.3441 5.21666 15.059 4.48935C15.7738 3.76203 16.747 3.34655 17.7667 3.33337H22.0167C22.5129 3.33471 23.0038 3.43405 23.4615 3.62568C23.9191 3.81731 24.3343 4.09746 24.6834 4.45004C25.4172 5.19636 25.8248 6.20342 25.8167 7.25004V7.71671C25.8083 8.17629 25.9079 8.63143 26.1077 9.04542C26.3075 9.45941 26.6017 9.82066 26.9667 10.1L27.1501 10.2334C27.5241 10.5139 27.9605 10.6998 28.4219 10.7752C28.8833 10.8507 29.3561 10.8135 29.8001 10.6667L30.3667 10.4834C30.8468 10.3242 31.3541 10.2634 31.8582 10.3045C32.3623 10.3457 32.853 10.4879 33.301 10.7228C33.7489 10.9576 34.145 11.2803 34.4655 11.6716C34.7861 12.0628 35.0246 12.5146 35.1667 13L36.4834 17.2C36.7881 18.1707 36.7048 19.2216 36.2511 20.1322C35.7973 21.0428 35.0084 21.7421 34.0501 22.0834L33.7167 22.2C33.2265 22.3606 32.7831 22.6391 32.4257 23.0111C32.0682 23.383 31.8076 23.8371 31.6667 24.3334C31.5341 24.7947 31.5026 25.2793 31.5745 25.7539C31.6464 26.2285 31.82 26.682 32.0834 27.0834L32.5167 27.7167C33.0914 28.5508 33.3252 29.5731 33.1703 30.574C33.0153 31.575 32.4833 32.4788 31.6834 33.1L28.3334 35.6834C27.9287 35.9929 27.4649 36.2163 26.9706 36.3398C26.4763 36.4633 25.9619 36.4844 25.4591 36.4016C24.9564 36.3189 24.4759 36.1341 24.0473 35.8586C23.6186 35.5832 23.2509 35.2229 22.9667 34.8L22.7667 34.5167C22.4938 34.1065 22.1213 33.7721 21.6841 33.5448C21.247 33.3174 20.7593 33.2046 20.2667 33.2167C19.7967 33.2289 19.3361 33.3514 18.9221 33.5743C18.5081 33.7972 18.1523 34.1143 17.8834 34.5L17.5001 35.05C17.2158 35.4759 16.8473 35.8391 16.4174 36.1171C15.9874 36.3951 15.5051 36.5822 15.0001 36.6667C14.7839 36.6879 14.5662 36.6879 14.3501 36.6667ZM7.33339 19.3667C8.27454 19.7023 9.12377 20.2542 9.81272 20.9779C10.5017 21.7015 11.0111 22.5769 11.3001 23.5334V23.7334C11.6599 24.7278 11.7781 25.7935 11.6448 26.8426C11.5115 27.8916 11.1305 28.8939 10.5334 29.7667C10.428 29.8832 10.3696 30.0346 10.3696 30.1917C10.3696 30.3488 10.428 30.5003 10.5334 30.6167L14.1167 33.3334C14.1635 33.3701 14.2175 33.3964 14.2753 33.4105C14.333 33.4246 14.3931 33.4262 14.4516 33.4151C14.51 33.4041 14.5653 33.3806 14.6139 33.3464C14.6626 33.3122 14.7033 33.268 14.7334 33.2167L15.1167 32.6667C15.6949 31.8313 16.467 31.1486 17.3668 30.677C18.2667 30.2054 19.2675 29.9591 20.2834 29.9591C21.2993 29.9591 22.3001 30.2054 23.2 30.677C24.0998 31.1486 24.8719 31.8313 25.4501 32.6667L25.6501 32.9667C25.7217 33.0684 25.8287 33.1397 25.9501 33.1667C26.0057 33.1749 26.0625 33.1718 26.1169 33.1575C26.1713 33.1431 26.2223 33.1179 26.2667 33.0834L29.7001 30.4834C29.8202 30.388 29.8993 30.2502 29.921 30.0983C29.9427 29.9464 29.9054 29.7919 29.8167 29.6667L29.3834 29.0334C28.8188 28.21 28.4463 27.2704 28.2934 26.2839C28.1405 25.2973 28.2111 24.289 28.5001 23.3334C28.793 22.329 29.3228 21.4096 30.045 20.6527C30.7671 19.8957 31.6606 19.3232 32.6501 18.9834L32.9834 18.8667C33.1223 18.8111 33.2336 18.7027 33.2929 18.5653C33.3522 18.4279 33.3548 18.2727 33.3001 18.1334L32.0001 13.9834C31.9688 13.9108 31.9232 13.8453 31.8659 13.7908C31.8086 13.7364 31.7408 13.6942 31.6667 13.6667C31.6177 13.6418 31.5634 13.6288 31.5084 13.6288C31.4534 13.6288 31.3991 13.6418 31.3501 13.6667L30.7834 13.85C29.8248 14.1664 28.8037 14.2452 27.8079 14.0798C26.8122 13.9143 25.8715 13.5094 25.0667 12.9L25.0001 12.75C24.2279 12.1652 23.6017 11.4094 23.1708 10.5419C22.74 9.67431 22.5161 8.71869 22.5167 7.75004V7.23337C22.5197 7.07273 22.4599 6.91726 22.3501 6.80004C22.2542 6.71339 22.1293 6.66581 22.0001 6.66671H17.7667C17.6988 6.67095 17.6324 6.68855 17.5714 6.71852C17.5103 6.74848 17.4557 6.79021 17.4108 6.84131C17.3659 6.89241 17.3315 6.95188 17.3097 7.0163C17.2878 7.08072 17.2789 7.14883 17.2834 7.21671V7.63337C17.2835 8.62844 17.0551 9.61024 16.6159 10.5031C16.1767 11.396 15.5384 12.1761 14.7501 12.7834L14.5334 12.95C13.6829 13.5976 12.6863 14.0259 11.6312 14.1974C10.5762 14.3689 9.49513 14.2782 8.48339 13.9334C8.40769 13.908 8.32576 13.908 8.25006 13.9334C8.156 13.9905 8.08516 14.0791 8.05006 14.1834L6.66672 18.5334C6.6185 18.6815 6.6298 18.8426 6.69823 18.9826C6.76666 19.1226 6.88686 19.2304 7.03339 19.2834L7.33339 19.3667Z" fill="white"/>
<path d="M20.0001 25.8333C18.8464 25.8333 17.7185 25.4912 16.7593 24.8502C15.8 24.2092 15.0523 23.2982 14.6108 22.2323C14.1693 21.1664 14.0538 19.9935 14.2788 18.8619C14.5039 17.7304 15.0595 16.691 15.8753 15.8752C16.6911 15.0594 17.7305 14.5038 18.8621 14.2787C19.9936 14.0536 21.1665 14.1692 22.2324 14.6107C23.2983 15.0522 24.2093 15.7998 24.8503 16.7591C25.4913 17.7184 25.8334 18.8462 25.8334 20C25.8334 21.5471 25.2188 23.0308 24.1249 24.1248C23.0309 25.2187 21.5472 25.8333 20.0001 25.8333ZM20.0001 17.5C19.5056 17.5 19.0223 17.6466 18.6112 17.9213C18.2 18.196 17.8796 18.5864 17.6904 19.0433C17.5012 19.5001 17.4517 20.0027 17.5481 20.4877C17.6446 20.9726 17.8827 21.4181 18.2323 21.7677C18.5819 22.1174 19.0274 22.3555 19.5124 22.4519C19.9973 22.5484 20.5 22.4989 20.9568 22.3097C21.4136 22.1204 21.8041 21.8 22.0788 21.3889C22.3535 20.9778 22.5001 20.4944 22.5001 20C22.5001 19.3369 22.2367 18.701 21.7679 18.2322C21.299 17.7634 20.6631 17.5 20.0001 17.5Z" fill="white"/>
</svg>
