<svg width="42" height="45" viewBox="0 0 42 45" fill="none" xmlns="http://www.w3.org/2000/svg">
<g filter="url(#filter0_d_22_556)">
<path d="M15.35 36.6667C14.5367 36.6619 13.747 36.3928 13.1 35.9L9.65 33.3333C8.85385 32.7126 8.32559 31.8106 8.17371 30.8125C8.02184 29.8145 8.25787 28.7961 8.83333 27.9667C9.13781 27.5171 9.33132 27.0017 9.39795 26.4628C9.46459 25.9239 9.40246 25.3769 9.21667 24.8667L9.11667 24.6C8.9873 24.1382 8.75085 23.7134 8.42651 23.3601C8.10218 23.0068 7.6991 22.735 7.25 22.5667H6.98333C6.00979 22.2393 5.20468 21.5411 4.74285 20.6237C4.28101 19.7063 4.19974 18.6437 4.51667 17.6667L5.88333 13.3333C6.00914 12.8313 6.24076 12.3619 6.56269 11.9566C6.88462 11.5513 7.28943 11.2195 7.75 10.9833C8.17892 10.7623 8.64822 10.6307 9.1295 10.5963C9.61077 10.5619 10.094 10.6256 10.55 10.7833C11.0465 10.9504 11.5762 10.9937 12.0933 10.9095C12.6103 10.8253 13.0989 10.616 13.5167 10.3L13.7333 10.1333C14.1115 9.8316 14.4171 9.44885 14.6277 9.01329C14.8383 8.57772 14.9484 8.10046 14.95 7.61668V7.21668C14.9455 6.19689 15.3441 5.21663 16.0589 4.48931C16.7737 3.762 17.747 3.34652 18.7667 3.33334H23.0167C23.5128 3.33468 24.0038 3.43402 24.4614 3.62565C24.919 3.81728 25.3343 4.09743 25.6833 4.45001C26.4172 5.19633 26.8248 6.20339 26.8167 7.25001V7.71668C26.8082 8.17626 26.9079 8.6314 27.1076 9.04539C27.3074 9.45938 27.6016 9.82063 27.9667 10.1L28.15 10.2333C28.5241 10.5138 28.9604 10.6997 29.4218 10.7752C29.8832 10.8507 30.3561 10.8134 30.8 10.6667L31.3667 10.4833C31.8468 10.3242 32.354 10.2634 32.8581 10.3045C33.3623 10.3456 33.8529 10.4879 34.3009 10.7227C34.7489 10.9576 35.1449 11.2803 35.4655 11.6715C35.786 12.0628 36.0245 12.5146 36.1667 13L37.4833 17.2C37.788 18.1707 37.7047 19.2216 37.251 20.1322C36.7973 21.0427 36.0084 21.7421 35.05 22.0833L34.7167 22.2C34.2264 22.3605 33.7831 22.639 33.4256 23.011C33.0682 23.383 32.8076 23.8371 32.6667 24.3333C32.534 24.7947 32.5026 25.2793 32.5745 25.7539C32.6464 26.2285 32.82 26.682 33.0833 27.0833L33.5167 27.7167C34.0913 28.5507 34.3252 29.5731 34.1702 30.574C34.0153 31.575 33.4833 32.4787 32.6833 33.1L29.3333 35.6833C28.9286 35.9929 28.4648 36.2163 27.9705 36.3398C27.4762 36.4633 26.9618 36.4843 26.4591 36.4016C25.9563 36.3188 25.4759 36.1341 25.0472 35.8586C24.6186 35.5832 24.2508 35.2229 23.9667 34.8L23.7667 34.5167C23.4937 34.1065 23.1212 33.7721 22.6841 33.5447C22.2469 33.3174 21.7593 33.2045 21.2667 33.2167C20.7966 33.2289 20.336 33.3513 19.922 33.5743C19.508 33.7972 19.1522 34.1143 18.8833 34.5L18.5 35.05C18.2157 35.4759 17.8473 35.839 17.4173 36.1171C16.9874 36.3951 16.505 36.5822 16 36.6667C15.7839 36.6879 15.5661 36.6879 15.35 36.6667ZM8.33333 19.3667C9.27448 19.7023 10.1237 20.2541 10.8127 20.9778C11.5016 21.7015 12.0111 22.5768 12.3 23.5333V23.7333C12.6599 24.7277 12.7781 25.7935 12.6448 26.8425C12.5114 27.8916 12.1305 28.8939 11.5333 29.7667C11.4279 29.8831 11.3696 30.0346 11.3696 30.1917C11.3696 30.3488 11.4279 30.5002 11.5333 30.6167L15.1167 33.3333C15.1634 33.3701 15.2175 33.3964 15.2752 33.4105C15.333 33.4246 15.3931 33.4261 15.4515 33.4151C15.5099 33.404 15.5653 33.3806 15.6139 33.3464C15.6625 33.3122 15.7032 33.2679 15.7333 33.2167L16.1167 32.6667C16.6948 31.8313 17.4669 31.1486 18.3668 30.677C19.2666 30.2054 20.2674 29.9591 21.2833 29.9591C22.2993 29.9591 23.3 30.2054 24.1999 30.677C25.0998 31.1486 25.8719 31.8313 26.45 32.6667L26.65 32.9667C26.7216 33.0683 26.8286 33.1396 26.95 33.1667C27.0057 33.1749 27.0624 33.1717 27.1169 33.1574C27.1713 33.1431 27.2222 33.1179 27.2667 33.0833L30.7 30.4833C30.8202 30.388 30.8993 30.2501 30.921 30.0982C30.9427 29.9463 30.9053 29.7919 30.8167 29.6667L30.3833 29.0333C29.8187 28.21 29.4462 27.2704 29.2933 26.2838C29.1404 25.2973 29.2111 24.289 29.5 23.3333C29.7929 22.329 30.3227 21.4096 31.0449 20.6526C31.7671 19.8956 32.6605 19.3232 33.65 18.9833L33.9833 18.8667C34.1223 18.811 34.2335 18.7027 34.2928 18.5653C34.3522 18.4279 34.3547 18.2726 34.3 18.1333L33 13.9833C32.9688 13.9107 32.9231 13.8452 32.8658 13.7908C32.8085 13.7363 32.7408 13.6941 32.6667 13.6667C32.6176 13.6418 32.5634 13.6288 32.5083 13.6288C32.4533 13.6288 32.3991 13.6418 32.35 13.6667L31.7833 13.85C30.8247 14.1664 29.8037 14.2452 28.8079 14.0797C27.8121 13.9143 26.8714 13.5094 26.0667 12.9L26 12.75C25.2278 12.1652 24.6017 11.4094 24.1708 10.5418C23.7399 9.67428 23.516 8.71866 23.5167 7.75001V7.23334C23.5197 7.0727 23.4599 6.91723 23.35 6.80001C23.2541 6.71336 23.1292 6.66578 23 6.66668H18.7667C18.6988 6.67092 18.6324 6.68852 18.5713 6.71849C18.5102 6.74845 18.4557 6.79018 18.4108 6.84128C18.3658 6.89238 18.3315 6.95185 18.3096 7.01627C18.2877 7.08069 18.2788 7.1488 18.2833 7.21668V7.63334C18.2834 8.62841 18.0551 9.61021 17.6159 10.5031C17.1766 11.396 16.5383 12.1761 15.75 12.7833L15.5333 12.95C14.6829 13.5975 13.6862 14.0259 12.6312 14.1974C11.5761 14.3689 10.4951 14.2782 9.48333 13.9333C9.40763 13.9079 9.3257 13.9079 9.25 13.9333C9.15594 13.9905 9.0851 14.079 9.05 14.1833L7.66667 18.5333C7.61845 18.6815 7.62975 18.8426 7.69818 18.9826C7.76661 19.1225 7.8868 19.2304 8.03333 19.2833L8.33333 19.3667Z" fill="white"/>
<path d="M21 25.8333C19.8463 25.8333 18.7185 25.4912 17.7592 24.8502C16.7999 24.2093 16.0522 23.2982 15.6107 22.2323C15.1692 21.1664 15.0537 19.9935 15.2788 18.862C15.5038 17.7304 16.0594 16.691 16.8752 15.8752C17.691 15.0594 18.7304 14.5038 19.862 14.2787C20.9935 14.0537 22.1664 14.1692 23.2323 14.6107C24.2982 15.0522 25.2093 15.7999 25.8502 16.7592C26.4912 17.7185 26.8333 18.8463 26.8333 20C26.8333 21.5471 26.2188 23.0308 25.1248 24.1248C24.0308 25.2187 22.5471 25.8333 21 25.8333ZM21 17.5C20.5055 17.5 20.0222 17.6466 19.6111 17.9213C19.2 18.196 18.8795 18.5865 18.6903 19.0433C18.5011 19.5001 18.4516 20.0028 18.548 20.4877C18.6445 20.9727 18.8826 21.4181 19.2322 21.7678C19.5819 22.1174 20.0273 22.3555 20.5123 22.452C20.9972 22.5484 21.4999 22.4989 21.9567 22.3097C22.4135 22.1205 22.804 21.8 23.0787 21.3889C23.3534 20.9778 23.5 20.4944 23.5 20C23.5 19.337 23.2366 18.7011 22.7678 18.2322C22.2989 17.7634 21.663 17.5 21 17.5Z" fill="white"/>
</g>
<defs>
<filter id="filter0_d_22_556" x="-3" y="0" width="48" height="48" filterUnits="userSpaceOnUse" color-interpolation-filters="sRGB">
<feFlood flood-opacity="0" result="BackgroundImageFix"/>
<feColorMatrix in="SourceAlpha" type="matrix" values="0 0 0 0 0 0 0 0 0 0 0 0 0 0 0 0 0 0 127 0" result="hardAlpha"/>
<feOffset dy="4"/>
<feGaussianBlur stdDeviation="2"/>
<feComposite in2="hardAlpha" operator="out"/>
<feColorMatrix type="matrix" values="0 0 0 0 0 0 0 0 0 0 0 0 0 0 0 0 0 0 0.25 0"/>
<feBlend mode="normal" in2="BackgroundImageFix" result="effect1_dropShadow_22_556"/>
<feBlend mode="normal" in="SourceGraphic" in2="effect1_dropShadow_22_556" result="shape"/>
</filter>
</defs>
</svg>
