<svg width="40" height="44" viewBox="0 0 40 44" fill="none" xmlns="http://www.w3.org/2000/svg">
<g filter="url(#filter0_d_52_317)">
<path d="M18.2825 3.15504C18.7467 2.7162 19.3612 2.47168 20 2.47168C20.6388 2.47168 21.2533 2.7162 21.7175 3.15504L33.8275 14.6025C34.5775 15.31 35 16.2975 35 17.3275V31.2525C35 32.2471 34.6049 33.2009 33.9017 33.9042C33.1984 34.6075 32.2446 35.0025 31.25 35.0025H26.25C25.7573 35.0025 25.2695 34.9055 24.8144 34.7169C24.3592 34.5282 23.9457 34.2518 23.5975 33.9033C23.2492 33.5548 22.973 33.1411 22.7847 32.6859C22.5964 32.2306 22.4997 31.7427 22.5 31.25V25C22.5 24.6685 22.3683 24.3506 22.1339 24.1162C21.8995 23.8817 21.5815 23.75 21.25 23.75H18.75C18.4185 23.75 18.1005 23.8817 17.8661 24.1162C17.6317 24.3506 17.5 24.6685 17.5 25V31.25C17.5 32.2446 17.1049 33.1984 16.4017 33.9017C15.6984 34.605 14.7446 35 13.75 35H8.75C7.75544 35 6.80161 34.605 6.09835 33.9017C5.39509 33.1984 5 32.2446 5 31.25V17.325C5 16.295 5.425 15.3075 6.175 14.6L18.2825 3.15004V3.15504ZM20 4.97004L7.89 16.42C7.76706 16.5366 7.6691 16.6769 7.60205 16.8325C7.53501 16.9881 7.50029 17.1556 7.5 17.325V31.25C7.5 31.5816 7.6317 31.8995 7.86612 32.1339C8.10054 32.3683 8.41848 32.5 8.75 32.5H13.75C14.0815 32.5 14.3995 32.3683 14.6339 32.1339C14.8683 31.8995 15 31.5816 15 31.25V25C15 24.0055 15.3951 23.0516 16.0983 22.3484C16.8016 21.6451 17.7554 21.25 18.75 21.25H21.25C22.2446 21.25 23.1984 21.6451 23.9017 22.3484C24.6049 23.0516 25 24.0055 25 25V31.25C25 31.5816 25.1317 31.8995 25.3661 32.1339C25.6005 32.3683 25.9185 32.5 26.25 32.5H31.25C31.5815 32.5 31.8995 32.3683 32.1339 32.1339C32.3683 31.8995 32.5 31.5816 32.5 31.25V17.325C32.5 17.1552 32.4655 16.9872 32.3984 16.8311C32.3314 16.6751 32.2332 16.5344 32.11 16.4175L20 4.97004Z" fill="white"/>
</g>
<defs>
<filter id="filter0_d_52_317" x="-4" y="0" width="48" height="48" filterUnits="userSpaceOnUse" color-interpolation-filters="sRGB">
<feFlood flood-opacity="0" result="BackgroundImageFix"/>
<feColorMatrix in="SourceAlpha" type="matrix" values="0 0 0 0 0 0 0 0 0 0 0 0 0 0 0 0 0 0 127 0" result="hardAlpha"/>
<feOffset dy="4"/>
<feGaussianBlur stdDeviation="2"/>
<feComposite in2="hardAlpha" operator="out"/>
<feColorMatrix type="matrix" values="0 0 0 0 0 0 0 0 0 0 0 0 0 0 0 0 0 0 0.25 0"/>
<feBlend mode="normal" in2="BackgroundImageFix" result="effect1_dropShadow_52_317"/>
<feBlend mode="normal" in="SourceGraphic" in2="effect1_dropShadow_52_317" result="shape"/>
</filter>
</defs>
</svg>
