<svg width="43" height="47" viewBox="0 0 43 47" fill="none" xmlns="http://www.w3.org/2000/svg">
<g filter="url(#filter0_d_15_12)">
<path d="M20 7.46667C18.7408 7.46667 17.5099 7.84007 16.4629 8.53965C15.4159 9.23923 14.5998 10.2336 14.118 11.3969C13.6361 12.5603 13.51 13.8404 13.7557 15.0754C14.0013 16.3104 14.6077 17.4449 15.4981 18.3353C16.3885 19.2257 17.5229 19.832 18.7579 20.0777C19.9929 20.3233 21.2731 20.1973 22.4364 19.7154C23.5998 19.2335 24.5941 18.4175 25.2937 17.3705C25.9933 16.3235 26.3667 15.0925 26.3667 13.8333C26.3667 12.1448 25.6959 10.5254 24.5019 9.33143C23.3079 8.13745 21.6885 7.46667 20 7.46667ZM20 17.9778C19.1803 17.9778 18.379 17.7347 17.6975 17.2793C17.0159 16.8239 16.4847 16.1767 16.171 15.4194C15.8573 14.6621 15.7753 13.8287 15.9352 13.0248C16.0951 12.2209 16.4898 11.4824 17.0694 10.9028C17.649 10.3232 18.3875 9.92845 19.1915 9.76853C19.9954 9.60862 20.8287 9.69069 21.586 10.0044C22.3433 10.3181 22.9906 10.8493 23.446 11.5308C23.9014 12.2124 24.1444 13.0136 24.1444 13.8333C24.1415 14.9306 23.7036 15.9819 22.9266 16.7567C22.1497 17.5316 21.0973 17.9667 20 17.9667V17.9778Z" fill="white"/>
<path d="M33.0778 14.9889C32.3238 14.9679 31.5763 14.8446 30.8556 14.6222V15.2555C30.8556 19.7667 28.1667 23.7778 26.2 26.7111L25.8 27.3C23.8889 30.1667 21.3556 33.3778 19.9889 34.9666C18.6778 33.3778 16.0889 30.1667 14.1778 27.3L13.8 26.6667C11.8333 23.7333 9.13333 19.7222 9.13333 15.2111C9.14007 13.3428 9.6289 11.5078 10.5525 9.88374C11.4762 8.25967 12.8033 6.90147 14.4056 5.94055C16.0079 4.97963 17.831 4.44851 19.6987 4.39858C21.5664 4.34865 23.4153 4.7816 25.0667 5.65554C25.1551 4.89156 25.3496 4.14362 25.6444 3.43332C23.6491 2.46964 21.4414 2.02966 19.2291 2.15482C17.0168 2.27997 14.8728 2.96614 12.9989 4.14871C11.125 5.33128 9.58291 6.97134 8.51788 8.91444C7.45285 10.8575 6.89991 13.0397 6.91111 15.2555C6.91111 20.4444 9.82222 24.7889 11.9556 27.9555L12.3444 28.5333C14.467 31.6096 16.744 34.5763 19.1667 37.4222L20.0111 38.4111L20.8556 37.4222C23.2779 34.5761 25.5549 31.6093 27.6778 28.5333L28.0667 27.9444C30.1889 24.7778 33.1 20.4444 33.1 15.2555C33.0889 15.1667 33.0778 15.0778 33.0778 14.9889Z" fill="white"/>
<path d="M33.3333 12.2222C36.4016 12.2222 38.8889 9.73492 38.8889 6.66667C38.8889 3.59842 36.4016 1.11111 33.3333 1.11111C30.2651 1.11111 27.7778 3.59842 27.7778 6.66667C27.7778 9.73492 30.2651 12.2222 33.3333 12.2222Z" fill="white"/>
</g>
<defs>
<filter id="filter0_d_15_12" x="-4" y="0" width="48" height="48" filterUnits="userSpaceOnUse" color-interpolation-filters="sRGB">
<feFlood flood-opacity="0" result="BackgroundImageFix"/>
<feColorMatrix in="SourceAlpha" type="matrix" values="0 0 0 0 0 0 0 0 0 0 0 0 0 0 0 0 0 0 127 0" result="hardAlpha"/>
<feOffset dy="4"/>
<feGaussianBlur stdDeviation="2"/>
<feComposite in2="hardAlpha" operator="out"/>
<feColorMatrix type="matrix" values="0 0 0 0 0 0 0 0 0 0 0 0 0 0 0 0 0 0 0.25 0"/>
<feBlend mode="normal" in2="BackgroundImageFix" result="effect1_dropShadow_15_12"/>
<feBlend mode="normal" in="SourceGraphic" in2="effect1_dropShadow_15_12" result="shape"/>
</filter>
</defs>
</svg>
